<svg width="24" height="24" viewBox="0 0 24 24" fill="none" xmlns="http://www.w3.org/2000/svg">
<g id="Frame" clip-path="url(#clip0_1_1917)">
<path id="Vector" d="M18.364 17.364L12 23.728L5.636 17.364C4.37734 16.1053 3.52019 14.5017 3.17293 12.7559C2.82567 11.01 3.00391 9.20044 3.6851 7.55591C4.36629 5.91139 5.51984 4.50579 6.99988 3.51686C8.47992 2.52793 10.22 2.00009 12 2.00009C13.78 2.00009 15.5201 2.52793 17.0001 3.51686C18.4802 4.50579 19.6337 5.91139 20.3149 7.55591C20.9961 9.20044 21.1743 11.01 20.8271 12.7559C20.4798 14.5017 19.6227 16.1053 18.364 17.364ZM12 15C13.0609 15 14.0783 14.5786 14.8284 13.8284C15.5786 13.0783 16 12.0609 16 11C16 9.93915 15.5786 8.92173 14.8284 8.17159C14.0783 7.42144 13.0609 7.00001 12 7.00001C10.9391 7.00001 9.92172 7.42144 9.17158 8.17159C8.42143 8.92173 8 9.93915 8 11C8 12.0609 8.42143 13.0783 9.17158 13.8284C9.92172 14.5786 10.9391 15 12 15ZM12 13C11.4696 13 10.9609 12.7893 10.5858 12.4142C10.2107 12.0392 10 11.5304 10 11C10 10.4696 10.2107 9.96087 10.5858 9.5858C10.9609 9.21073 11.4696 9.00001 12 9.00001C12.5304 9.00001 13.0391 9.21073 13.4142 9.5858C13.7893 9.96087 14 10.4696 14 11C14 11.5304 13.7893 12.0392 13.4142 12.4142C13.0391 12.7893 12.5304 13 12 13Z" fill="#DA3A3A"/>
</g>
<defs>
<clipPath id="clip0_1_1917">
<rect width="24" height="24" fill="white"/>
</clipPath>
</defs>
</svg>
